<svg xmlns="http://www.w3.org/2000/svg" viewBox="0 0 2000 2000"><defs><style>.cls-1,.cls-3{fill:#070775;}.cls-2{fill:#fff;}.cls-3{font-size:118.82px;font-family:Axiforma-SemiBold, Axiforma;font-weight:700;letter-spacing:0em;}.cls-4{letter-spacing:-0.01em;}.cls-5{letter-spacing:0.01em;}.cls-6{letter-spacing:0em;}.cls-7{letter-spacing:0em;}</style></defs><title>GradEdIn - White_BG</title><g id="Layer_2" data-name="Layer 2"><circle class="cls-1" cx="985.44" cy="930.15" r="194.55"/><rect class="cls-1" x="985.44" y="736.41" width="194.55" height="194.55"/><path class="cls-2" d="M1129.82,898v33.3c0,79.66-64.81,144.47-144.47,144.47S840.86,1011,840.86,931.3s64.82-144.47,144.49-144.47l161,0-54.94,0-106.09-.38A144.84,144.84,0,1,0,1130.19,931.3V902.46Z"/><path class="cls-2" d="M985.35,1092.47a161.18,161.18,0,1,1,0-322.35l102.49.36h58.54v32.67l-54.94,0H985.35A128.29,128.29,0,0,0,857.2,931.3c0,70.65,57.49,128.13,128.15,128.13S1113.49,1002,1113.49,931.3l0-32.3h33.2l-.15,2.78V931.3a161.17,161.17,0,0,1-161.17,161.17Z"/><path class="cls-2" d="M1075,910.63V931.3a89.67,89.67,0,1,1-89.66-89.67h89.78l71.25-.25-161,0a89.89,89.89,0,1,0,89.89,89.9V910.63Z"/><path class="cls-2" d="M985.35,1037.53a106.24,106.24,0,1,1,0-212.47l161,0,.06,32.67-71.25.25H985.35a73.34,73.34,0,1,0,73.33,73.34V899h32.89l0,32.3a106.25,106.25,0,0,1-106.23,106.23Z"/><text class="cls-3" transform="translate(698.05 1271.87)">G<tspan class="cls-4" x="96.84" y="0">r</tspan><tspan class="cls-5" x="144.13" y="0">ad</tspan><tspan class="cls-6" x="305.49" y="0">E</tspan><tspan x="379.75" y="0">d</tspan><tspan class="cls-7" x="460.43" y="0">I</tspan><tspan x="497.14" y="0">n</tspan></text></g></svg>